<svg width="158" height="52" viewBox="0 0 158 52" fill="none" xmlns="http://www.w3.org/2000/svg">
<path d="M35.5879 3.45416H40.0364V11.4353H49.7446V3.45416H54.1669V23.6032H49.7446V15.3866H40.0364V23.6032H35.5879V3.45416Z" fill="#001E82"/>
<path d="M66.5443 19.8874C70.1031 19.8874 72.5891 17.1137 72.5891 13.5287C72.5891 9.94374 70.077 7.16996 66.5443 7.16996C62.9594 7.16996 60.4473 9.94374 60.4473 13.5287C60.4473 17.1137 62.9594 19.8874 66.5443 19.8874ZM66.5443 23.9957C60.5781 23.9957 55.9727 19.3641 55.9727 13.5025C55.9727 7.66714 60.5781 3.00928 66.5443 3.00928C72.5106 3.00928 77.1161 7.64097 77.1161 13.5025C77.1161 19.3641 72.5106 23.9957 66.5443 23.9957Z" fill="#001E82"/>
<path d="M89.2577 7.06531C85.6727 7.06531 83.213 9.89146 83.213 13.5288C83.213 17.1661 85.6727 19.9659 89.2577 19.9659C92.8165 19.9659 95.2763 17.1399 95.2763 13.5288C95.2763 9.89146 92.8165 7.06531 89.2577 7.06531ZM79.157 3.45423H83.5793V6.14944C84.7046 4.52705 87.1643 3.03552 90.0689 3.03552C95.5903 3.03552 99.7771 7.74572 99.7771 13.5288C99.7771 19.2856 95.5903 24.0219 90.0689 24.0219C87.1643 24.0219 84.7046 22.5304 83.5793 20.908V32.0292H79.157V3.45423Z" fill="#001E82"/>
<path d="M111.71 7.06531C108.125 7.06531 105.665 9.89146 105.665 13.5288C105.665 17.1661 108.125 19.9659 111.71 19.9659C115.268 19.9659 117.728 17.1399 117.728 13.5288C117.702 9.89146 115.242 7.06531 111.71 7.06531ZM101.583 3.45423H106.005V6.14944C107.13 4.52705 109.59 3.03552 112.495 3.03552C118.016 3.03552 122.203 7.74572 122.203 13.5288C122.203 19.2856 118.016 24.0219 112.495 24.0219C109.59 24.0219 107.13 22.5304 106.005 20.908V32.0292H101.583V3.45423Z" fill="#001E82"/>
<path d="M128.274 11.4614H139.395C138.715 8.19048 136.412 6.75126 133.952 6.75126C131.178 6.75126 128.876 8.37365 128.274 11.4614ZM134.031 23.9957C128.012 23.9957 123.72 19.5734 123.72 13.5025C123.72 7.5363 127.881 3.00928 134.083 3.00928C140.258 3.00928 144.576 7.7195 144.157 14.5754H128.117C128.274 17.637 130.629 20.0706 134.214 20.0706C136.438 20.0706 138.374 19.1809 139.29 17.2445H143.922C142.77 21.065 139.159 23.9957 134.031 23.9957Z" fill="#001E82"/>
<path d="M146.539 3.45417H150.961V7.03911C151.72 4.73637 153.996 3.24481 156.273 3.24481C156.849 3.24481 157.398 3.29711 158 3.40178V7.95498C157.241 7.71947 156.587 7.5886 155.776 7.5886C153.238 7.5886 150.935 9.73436 150.935 13.7642V23.6032H146.512V3.45417H146.539Z" fill="#001E82"/>
<path d="M18.7098 11.5399C19.3902 7.14378 22.8705 3.68963 27.2405 3.00927C26.5601 7.37926 23.0798 10.8596 18.7098 11.5399ZM21.9285 20.6986C22.1901 21.3005 22.0593 21.7976 21.9285 21.9285C21.7976 22.0593 21.3005 22.1901 20.6986 21.9285C19.6781 21.5098 18.9715 20.3323 18.7098 18.6837C20.3322 18.9716 21.5098 19.6781 21.9285 20.6986ZM14.5492 14.5492H15.6744V15.6744H14.5492V14.5492ZM9.52505 21.9547C8.92319 22.2163 8.42602 22.0855 8.29518 21.9547C8.16434 21.8238 8.03351 21.3266 8.29518 20.7248C8.71386 19.7043 9.89138 18.9977 11.5399 18.736C11.2521 20.3584 10.5718 21.5098 9.52505 21.9547ZM2.98315 3.00927C7.3793 3.68963 10.8334 7.16995 11.5137 11.5399C7.14376 10.8596 3.6635 7.37926 2.98315 3.00927ZM28.8106 0C22.0593 0 16.4856 5.12888 15.7791 11.6708H14.4707C13.738 5.12888 8.19046 0 1.43922 0H0V1.43922C0 8.19046 5.12888 13.7642 11.6708 14.4707V15.7529C7.51013 16.1978 6.07091 18.5267 5.65223 19.5734C4.99804 21.1696 5.25969 22.9228 6.28022 23.9696C6.93442 24.6237 7.87649 24.9639 8.87086 24.9639C9.47271 24.9639 10.0746 24.8331 10.6503 24.5975C11.697 24.1527 14.0258 22.7396 14.4707 18.579H15.7529C16.1978 22.7396 18.5267 24.1789 19.5734 24.5975C20.1491 24.8331 20.7771 24.9639 21.3528 24.9639C22.3472 24.9639 23.2892 24.6237 23.9434 23.9696C24.9901 22.9228 25.2256 21.1696 24.5714 19.5734C24.1266 18.5267 22.7135 16.1978 18.5529 15.7529V14.4707C25.0948 13.738 30.2236 8.19046 30.2236 1.43922V0H28.8106Z" fill="#001E82"/>
<path d="M80.0205 36.0852H79.157V42.2346H80.0205V36.0852Z" fill="#001E82"/>
<path d="M82.7419 36.8179H80.7532V36.0852H85.6204V36.8179H83.6316V42.2346H82.7419V36.8179Z" fill="#001E82"/>
<path d="M88.0803 38.7542H85.385V39.4869H88.0803V38.7542Z" fill="#001E82"/>
<path d="M92.9998 42.2345V36.8179H90.8279L90.7755 37.8907C90.7494 38.571 90.697 39.1729 90.6185 39.6963C90.54 40.2196 90.4353 40.6907 90.3045 41.057C90.1737 41.4233 89.9905 41.7112 89.7811 41.9205C89.5718 42.1299 89.3101 42.2345 88.9699 42.2345H88.7083V41.4756H88.8391C89.0484 41.4756 89.2055 41.371 89.3363 41.1616C89.4672 40.9523 89.5718 40.6906 89.6503 40.3243C89.7288 39.9841 89.7811 39.5654 89.8335 39.0944C89.8858 38.6234 89.912 38.1262 89.912 37.6029L89.9643 36.059H93.8371V42.2083H92.9998V42.2345Z" fill="#001E82"/>
<path d="M96.3493 40.1673H98.652L97.5006 36.9487L96.3493 40.1673ZM97.0034 36.0852H97.9978L100.327 42.2346H99.3847L98.8875 40.9H96.0614L95.5904 42.2346H94.7007L97.0034 36.0852Z" fill="#001E82"/>
<path d="M103.467 41.5018C103.886 41.5018 104.226 41.3971 104.461 41.214C104.697 41.0046 104.801 40.7168 104.801 40.3505C104.801 39.9318 104.671 39.6439 104.435 39.4869C104.2 39.3299 103.859 39.2514 103.415 39.2514H102.028V41.528H103.467V41.5018ZM102.054 38.5187H103.493C104.173 38.5187 104.723 38.6757 105.115 38.9636C105.508 39.2514 105.691 39.7224 105.691 40.3505C105.691 40.6906 105.639 40.9784 105.534 41.214C105.429 41.4495 105.272 41.6588 105.063 41.8158C104.854 41.9728 104.618 42.0775 104.356 42.156C104.069 42.2345 103.781 42.2607 103.441 42.2607H101.164V36.1113H105.299V36.8702H102.028V38.5187H102.054Z" fill="#001E82"/>
<path d="M107.366 39.1468C107.366 39.5393 107.418 39.9056 107.523 40.1935C107.627 40.5075 107.758 40.7692 107.941 40.9785C108.124 41.1878 108.334 41.3449 108.569 41.4495C108.805 41.5542 109.066 41.6065 109.354 41.6065C109.642 41.6065 109.904 41.5542 110.139 41.4495C110.375 41.3449 110.61 41.1878 110.767 40.9785C110.951 40.7692 111.081 40.5075 111.186 40.1935C111.291 39.8795 111.343 39.5393 111.343 39.1468C111.343 38.7543 111.291 38.3879 111.186 38.1001C111.081 37.7861 110.951 37.5506 110.767 37.3412C110.584 37.1319 110.375 36.9749 110.139 36.8702C109.904 36.7655 109.642 36.7132 109.354 36.7132C109.066 36.7132 108.805 36.7655 108.569 36.8702C108.334 36.9749 108.124 37.1319 107.941 37.3412C107.758 37.5506 107.627 37.8122 107.523 38.1001C107.418 38.4141 107.366 38.7543 107.366 39.1468ZM112.259 39.1468C112.259 39.6178 112.18 40.0364 112.05 40.429C111.919 40.8215 111.736 41.1617 111.474 41.4495C111.212 41.7374 110.924 41.9467 110.558 42.1037C110.192 42.2607 109.799 42.3392 109.354 42.3392C108.909 42.3392 108.517 42.2607 108.151 42.1037C107.784 41.9467 107.496 41.7374 107.235 41.4495C106.973 41.1617 106.79 40.8215 106.659 40.429C106.528 40.0364 106.45 39.6178 106.45 39.1468C106.45 38.6758 106.528 38.2571 106.659 37.8646C106.79 37.4721 106.973 37.1319 107.235 36.8702C107.496 36.5824 107.784 36.373 108.151 36.216C108.517 36.059 108.909 35.9805 109.354 35.9805C109.799 35.9805 110.192 36.059 110.558 36.216C110.924 36.373 111.212 36.5824 111.474 36.8702C111.736 37.158 111.919 37.4982 112.05 37.8646C112.18 38.2571 112.259 38.7019 112.259 39.1468Z" fill="#001E82"/>
<path d="M114.379 36.8179V39.0422H115.504C115.739 39.0422 115.949 39.0421 116.132 39.016C116.315 38.9898 116.498 38.9374 116.629 38.8589C116.786 38.7804 116.891 38.6758 116.969 38.5188C117.048 38.3618 117.1 38.1786 117.1 37.9169C117.1 37.6553 117.048 37.4721 116.969 37.3151C116.891 37.1581 116.786 37.0534 116.629 36.9749C116.472 36.8964 116.315 36.8441 116.132 36.8179C115.949 36.7917 115.713 36.7917 115.504 36.7917H114.379V36.8179ZM115.425 36.0852C115.792 36.0852 116.132 36.1114 116.446 36.1637C116.76 36.2161 117.022 36.3207 117.257 36.4515C117.493 36.5824 117.65 36.7917 117.78 37.0272C117.911 37.2627 117.964 37.5767 117.964 37.9693C117.964 38.3618 117.911 38.6758 117.78 38.9113C117.65 39.1468 117.493 39.33 117.257 39.487C117.022 39.6178 116.76 39.7225 116.446 39.7748C116.132 39.8271 115.792 39.8533 115.425 39.8533H114.352V42.2869H113.489V36.1375H115.425V36.0852Z" fill="#001E82"/>
<path d="M119.193 40.1673H121.496L120.345 36.9487L119.193 40.1673ZM119.848 36.0852H120.842L123.171 42.2346H122.229L121.732 40.9H118.906L118.435 42.2346H117.545L119.848 36.0852Z" fill="#001E82"/>
<path d="M124.61 36.8179H122.595V36.0852H127.489V36.8179H125.474V42.2346H124.61V36.8179Z" fill="#001E82"/>
<path d="M128.483 39.1468C128.483 39.5393 128.535 39.9056 128.64 40.1935C128.745 40.5075 128.876 40.7692 129.059 40.9785C129.242 41.1878 129.451 41.3449 129.687 41.4495C129.922 41.5542 130.184 41.6065 130.472 41.6065C130.76 41.6065 131.021 41.5542 131.257 41.4495C131.492 41.3449 131.728 41.1878 131.885 40.9785C132.068 40.7692 132.199 40.5075 132.304 40.1935C132.408 39.8795 132.461 39.5393 132.461 39.1468C132.461 38.7543 132.408 38.3879 132.304 38.1001C132.199 37.7861 132.068 37.5506 131.885 37.3412C131.702 37.1319 131.492 36.9749 131.257 36.8702C131.021 36.7655 130.76 36.7132 130.472 36.7132C130.184 36.7132 129.922 36.7655 129.687 36.8702C129.451 36.9749 129.242 37.1319 129.059 37.3412C128.876 37.5506 128.745 37.8122 128.64 38.1001C128.535 38.4141 128.483 38.7543 128.483 39.1468ZM133.376 39.1468C133.376 39.6178 133.298 40.0364 133.167 40.429C133.036 40.8215 132.853 41.1617 132.591 41.4495C132.33 41.7374 132.042 41.9467 131.676 42.1037C131.309 42.2607 130.917 42.3392 130.472 42.3392C130.027 42.3392 129.634 42.2607 129.268 42.1037C128.902 41.9467 128.614 41.7374 128.352 41.4495C128.09 41.1617 127.907 40.8215 127.776 40.429C127.646 40.0364 127.567 39.6178 127.567 39.1468C127.567 38.6758 127.646 38.2571 127.776 37.8646C127.907 37.4721 128.09 37.1319 128.352 36.8702C128.614 36.5824 128.902 36.373 129.268 36.216C129.634 36.059 130.027 35.9805 130.472 35.9805C130.917 35.9805 131.309 36.059 131.676 36.216C132.042 36.373 132.33 36.5824 132.591 36.8702C132.853 37.158 133.036 37.4982 133.167 37.8646C133.298 38.2571 133.376 38.7019 133.376 39.1468Z" fill="#001E82"/>
<path d="M135.496 36.8179V39.0422H136.621C136.857 39.0422 137.066 39.0421 137.249 39.016C137.432 38.9898 137.615 38.9374 137.746 38.8589C137.903 38.7804 138.008 38.6758 138.087 38.5188C138.165 38.3618 138.217 38.1786 138.217 37.9169C138.217 37.6553 138.165 37.4721 138.087 37.3151C138.008 37.1581 137.903 37.0534 137.746 36.9749C137.589 36.8964 137.432 36.8441 137.249 36.8179C137.066 36.7917 136.83 36.7917 136.621 36.7917H135.496V36.8179ZM136.543 36.0852C136.909 36.0852 137.249 36.1114 137.563 36.1637C137.877 36.2161 138.139 36.3207 138.374 36.4515C138.61 36.5824 138.767 36.7917 138.898 37.0272C139.029 37.2627 139.081 37.5767 139.081 37.9693C139.081 38.3618 139.029 38.6758 138.898 38.9113C138.767 39.1468 138.61 39.33 138.374 39.487C138.139 39.6178 137.877 39.7225 137.563 39.7748C137.249 39.8271 136.909 39.8533 136.543 39.8533H135.47V42.2869H134.606V36.1375H136.543V36.0852Z" fill="#001E82"/>
<path d="M144.236 37.3413L140.913 42.2346H140.049V36.0852H140.913V40.9785L144.236 36.0852H145.099V42.2346H144.236V37.3413Z" fill="#001E82"/>
<path d="M149.208 36.8179C148.946 36.8179 148.737 36.844 148.527 36.8702C148.318 36.8963 148.135 36.9487 148.004 37.0533C147.847 37.1318 147.742 37.2627 147.664 37.4197C147.585 37.5767 147.533 37.7599 147.533 37.9954C147.533 38.2309 147.585 38.4141 147.664 38.5711C147.742 38.7281 147.873 38.8589 148.03 38.9374C148.187 39.0159 148.37 39.0944 148.554 39.1206C148.763 39.1467 148.972 39.1729 149.208 39.1729H150.124V36.8179H149.208ZM150.987 42.2345H150.124V39.9318H149.234C149.182 39.9318 149.129 39.9318 149.077 39.9318C149.025 39.9318 148.972 39.9318 148.92 39.9318C148.868 39.9318 148.842 39.9318 148.815 39.9318L147.298 42.2607H146.303L147.978 39.7224C147.585 39.5916 147.271 39.3823 147.01 39.0944C146.774 38.8066 146.643 38.4402 146.643 37.9692C146.643 37.6029 146.696 37.315 146.827 37.0533C146.957 36.8178 147.141 36.6085 147.376 36.4777C147.612 36.3207 147.899 36.2422 148.213 36.1637C148.527 36.1113 148.894 36.059 149.26 36.059H150.987V42.2345Z" fill="#001E82"/>
<path d="M82.9251 44.8251H80.7532L80.727 46.1597C80.727 46.9971 80.6485 47.7035 80.4915 48.2792C80.3606 48.8287 80.1775 49.2475 79.9943 49.5092H82.9251V44.8251ZM84.5475 51.5241H83.7362V50.2418H79.4186V51.5241H78.6074V49.483H78.8691C79.0523 49.483 79.2093 49.3783 79.3139 49.1951C79.4448 49.0119 79.5233 48.7502 79.6018 48.4101C79.6803 48.0699 79.7326 47.7036 79.7588 47.2587C79.7849 46.8139 79.8111 46.369 79.8111 45.8718L79.8373 44.0663H83.7101V49.483H84.4689V51.5241H84.5475Z" fill="#001E82"/>
<path d="M89.31 50.2418V44.8251H87.1381L87.0858 45.898C87.0596 46.5784 87.0073 47.1802 86.9288 47.7036C86.8503 48.2269 86.7456 48.6979 86.6147 49.0643C86.4839 49.4306 86.3007 49.7185 86.0914 49.9278C85.882 50.1371 85.6204 50.2418 85.2802 50.2418H85.0186V49.483H85.1494C85.3587 49.483 85.5157 49.3783 85.6466 49.169C85.7774 48.9596 85.882 48.698 85.9606 48.3316C86.0391 47.9914 86.0914 47.5727 86.1438 47.1017C86.1961 46.6307 86.2222 46.1335 86.2222 45.6101L86.2746 44.0663H90.1474V50.2157H89.31V50.2418Z" fill="#001E82"/>
<path d="M94.282 44.8251C94.0203 44.8251 93.811 44.8513 93.6017 44.8774C93.3923 44.9036 93.2092 44.956 93.0783 45.0607C92.9213 45.1392 92.8166 45.27 92.7381 45.427C92.6596 45.584 92.6073 45.7672 92.6073 46.0027C92.6073 46.2382 92.6596 46.4213 92.7381 46.5783C92.8166 46.7353 92.9475 46.8662 93.1045 46.9447C93.2615 47.0232 93.4446 47.1017 93.6278 47.1279C93.8372 47.154 94.0465 47.1802 94.282 47.1802H95.1979V44.8251H94.282ZM96.0614 50.2418H95.1979V47.9391H94.3082C94.2559 47.9391 94.2035 47.9391 94.1512 47.9391C94.0988 47.9391 94.0465 47.9391 93.9942 47.9391C93.9419 47.9391 93.9157 47.9391 93.8895 47.9391L92.3718 50.268H91.3774L93.0521 47.7297C92.6596 47.5989 92.3456 47.3895 92.084 47.1017C91.8484 46.8138 91.7176 46.4475 91.7176 45.9765C91.7176 45.6102 91.77 45.3223 91.9008 45.0607C92.0316 44.8252 92.2148 44.6158 92.4503 44.4849C92.6858 44.3279 92.9736 44.2494 93.2876 44.1709C93.6016 44.1186 93.968 44.0663 94.3343 44.0663H96.0614V50.2418Z" fill="#001E82"/>
<path d="M101.975 49.483C102.394 49.483 102.734 49.3783 102.969 49.1951C103.205 48.9857 103.31 48.698 103.31 48.3316C103.31 47.9129 103.179 47.6251 102.943 47.4681C102.708 47.3111 102.368 47.2325 101.923 47.2325H100.536V49.5092H101.975V49.483ZM100.562 46.4999H102.001C102.682 46.4999 103.231 46.6569 103.624 46.9447C104.016 47.2326 104.199 47.7036 104.199 48.3316C104.199 48.6718 104.147 48.9596 104.042 49.1951C103.938 49.4306 103.781 49.64 103.571 49.797C103.388 49.954 103.126 50.0586 102.865 50.1371C102.577 50.2157 102.289 50.2418 101.949 50.2418H99.6724V44.0924H103.807V44.8513H100.536V46.4999H100.562Z" fill="#001E82"/>
<path d="M109.564 45.3485L106.24 50.2418H105.377V44.0924H106.24V48.9596L109.564 44.0924H110.427V50.2418H109.564V45.3485Z" fill="#001E82"/>
<path d="M115.111 46.9971C115.452 47.1017 115.713 47.2587 115.896 47.4942C116.08 47.7297 116.184 48.0699 116.184 48.5148C116.184 48.8288 116.132 49.1166 116.001 49.3521C115.87 49.5877 115.687 49.7708 115.478 49.9278C115.268 50.0848 115.007 50.1895 114.719 50.268C114.431 50.3465 114.143 50.3727 113.829 50.3727C113.175 50.3727 112.652 50.2157 112.259 49.8755C111.867 49.5353 111.631 49.0905 111.5 48.5148H112.338C112.416 48.8811 112.573 49.169 112.835 49.3521C113.096 49.5353 113.437 49.64 113.855 49.64C114.326 49.64 114.667 49.5353 114.902 49.3259C115.138 49.1166 115.242 48.8549 115.242 48.4886C115.242 48.1484 115.138 47.8867 114.902 47.7036C114.667 47.5204 114.326 47.4419 113.855 47.4419H113.123V46.7354H113.803C114.169 46.7354 114.457 46.6569 114.693 46.4737C114.928 46.3167 115.033 46.055 115.033 45.741C115.033 45.4008 114.928 45.1653 114.719 44.9822C114.51 44.799 114.222 44.7205 113.855 44.7205C113.698 44.7205 113.515 44.7467 113.358 44.799C113.201 44.8513 113.07 44.9298 112.939 45.0345C112.809 45.1392 112.704 45.27 112.625 45.427C112.547 45.584 112.495 45.7672 112.468 45.9765H111.605C111.657 45.6887 111.736 45.4008 111.84 45.1653C111.971 44.9298 112.128 44.7205 112.311 44.5373C112.495 44.3542 112.73 44.2233 112.992 44.1448C113.253 44.0401 113.541 44.014 113.882 44.014C114.169 44.014 114.431 44.0401 114.667 44.1186C114.902 44.1971 115.138 44.3018 115.321 44.4326C115.504 44.5635 115.661 44.7466 115.766 44.956C115.87 45.1653 115.923 45.4008 115.923 45.6625C115.923 45.9765 115.844 46.2644 115.687 46.4737C115.609 46.683 115.399 46.8401 115.111 46.9971Z" fill="#001E82"/>
<path d="M122.36 44.0924V50.2418H121.496V47.4419H118.251V50.2418H117.388V44.0924H118.251V46.7092H121.496V44.0924H122.36Z" fill="#001E82"/>
<path d="M123.982 44.0924H128.169V44.8251H124.846V46.7092H127.96V47.4419H124.846V49.483H128.169V50.2418H123.982V44.0924Z" fill="#001E82"/>
<path d="M134.501 48.2792C134.423 48.6194 134.318 48.9073 134.161 49.1689C134.004 49.4306 133.795 49.64 133.559 49.8231C133.324 50.0063 133.062 50.1371 132.774 50.2156C132.487 50.2941 132.173 50.3465 131.832 50.3465C131.388 50.3465 130.995 50.2679 130.655 50.1109C130.315 49.9539 130.027 49.7446 129.765 49.4567C129.53 49.1689 129.346 48.8287 129.216 48.4362C129.085 48.0437 129.032 47.6251 129.032 47.154C129.032 46.683 129.111 46.2382 129.242 45.8457C129.373 45.4532 129.582 45.113 129.817 44.8513C130.079 44.5634 130.367 44.3541 130.707 44.1971C131.047 44.0401 131.44 43.9615 131.885 43.9615C132.199 43.9615 132.513 44.0139 132.774 44.0924C133.062 44.1971 133.324 44.3279 133.533 44.4849C133.769 44.6681 133.952 44.8774 134.109 45.1391C134.266 45.4008 134.371 45.6886 134.449 46.0288H133.612C133.559 45.8457 133.507 45.6625 133.402 45.5055C133.298 45.3485 133.193 45.1914 133.036 45.0868C132.879 44.9559 132.722 44.8775 132.513 44.799C132.303 44.7205 132.094 44.6943 131.859 44.6943C131.597 44.6943 131.335 44.7466 131.1 44.8513C130.864 44.956 130.655 45.113 130.472 45.3223C130.289 45.5317 130.158 45.7933 130.053 46.0811C129.948 46.3952 129.896 46.7353 129.896 47.1279C129.896 47.5204 129.948 47.8605 130.053 48.1746C130.158 48.4886 130.289 48.7502 130.472 48.9596C130.655 49.1689 130.864 49.3259 131.1 49.4567C131.335 49.5614 131.597 49.6138 131.885 49.6138C132.382 49.6138 132.774 49.483 133.062 49.2475C133.35 48.9858 133.559 48.6717 133.664 48.2792H134.501Z" fill="#001E82"/>
<path d="M136.333 48.1746H138.636L137.485 44.956L136.333 48.1746ZM137.014 44.0924H138.008L140.337 50.2418H139.395L138.898 48.9073H136.072L135.601 50.2418H134.711L137.014 44.0924Z" fill="#001E82"/>
</svg>
