<svg width="24" height="24" viewBox="0 0 24 24" fill="none" xmlns="http://www.w3.org/2000/svg">
<path d="M15.6364 6.54545V17C15.6364 19.0091 14.0091 20.6364 12 20.6364C9.99091 20.6364 8.36364 19.0091 8.36364 17V5.63636C8.36364 4.38182 9.38182 3.36364 10.6364 3.36364C11.8909 3.36364 12.9091 4.38182 12.9091 5.63636V15.1818C12.9091 15.6818 12.5 16.0909 12 16.0909C11.5 16.0909 11.0909 15.6818 11.0909 15.1818V6.54545H9.72727V15.1818C9.72727 16.4364 10.7455 17.4545 12 17.4545C13.2545 17.4545 14.2727 16.4364 14.2727 15.1818V5.63636C14.2727 3.62727 12.6455 2 10.6364 2C8.62727 2 7 3.62727 7 5.63636V17C7 19.7636 9.23636 22 12 22C14.7636 22 17 19.7636 17 17V6.54545H15.6364Z" fill="#001E82"/>
</svg>
