<svg width="92" height="19" viewBox="0 0 92 19" fill="none" xmlns="http://www.w3.org/2000/svg">
<path d="M20.722 2.01129H23.3123V6.65852H28.9652V2.01129H31.5402V13.7437H28.9652V8.95926H23.3123V13.7437H20.722V2.01129Z" fill="#001E82"/>
<path d="M38.7473 11.58C40.8195 11.58 42.2671 9.96494 42.2671 7.87749C42.2671 5.79005 40.8043 4.17494 38.7473 4.17494C36.6599 4.17494 35.1972 5.79005 35.1972 7.87749C35.1972 9.96494 36.6599 11.58 38.7473 11.58ZM38.7473 13.9722C35.2733 13.9722 32.5917 11.2753 32.5917 7.86224C32.5917 4.46443 35.2733 1.75226 38.7473 1.75226C42.2213 1.75226 44.903 4.44919 44.903 7.86224C44.903 11.2753 42.2213 13.9722 38.7473 13.9722Z" fill="#001E82"/>
<path d="M51.9729 4.11397C49.8854 4.11397 48.4531 5.75958 48.4531 7.8775C48.4531 9.99542 49.8854 11.6257 51.9729 11.6257C54.0451 11.6257 55.4773 9.98018 55.4773 7.8775C55.4773 5.75958 54.0451 4.11397 51.9729 4.11397ZM46.0914 2.01132H48.6665V3.58069C49.3217 2.636 50.7539 1.76752 52.4452 1.76752C55.6602 1.76752 58.0981 4.51016 58.0981 7.8775C58.0981 11.2296 55.6602 13.9874 52.4452 13.9874C50.7539 13.9874 49.3217 13.119 48.6665 12.1743V18.6499H46.0914V2.01132Z" fill="#001E82"/>
<path d="M65.0461 4.11397C62.9586 4.11397 61.5263 5.75958 61.5263 7.8775C61.5263 9.99542 62.9586 11.6257 65.0461 11.6257C67.1183 11.6257 68.5505 9.98018 68.5505 7.8775C68.5353 5.75958 67.103 4.11397 65.0461 4.11397ZM59.1494 2.01132H61.7244V3.58069C62.3796 2.636 63.8119 1.76752 65.5032 1.76752C68.7181 1.76752 71.156 4.51016 71.156 7.8775C71.156 11.2296 68.7181 13.9874 65.5032 13.9874C63.8119 13.9874 62.3796 13.119 61.7244 12.1743V18.6499H59.1494V2.01132Z" fill="#001E82"/>
<path d="M74.691 6.67376H81.1667C80.7705 4.76916 79.4297 3.93113 77.9974 3.93113C76.3823 3.93113 75.0415 4.87582 74.691 6.67376ZM78.0431 13.9722C74.5387 13.9722 72.0398 11.3972 72.0398 7.86224C72.0398 4.38825 74.4625 1.75226 78.0736 1.75226C81.6695 1.75226 84.1836 4.49492 83.9398 8.48697H74.5996C74.691 10.2697 76.0623 11.6867 78.1498 11.6867C79.4449 11.6867 80.5724 11.1686 81.1057 10.0411H83.8026C83.1322 12.2657 81.0295 13.9722 78.0431 13.9722Z" fill="#001E82"/>
<path d="M85.3262 2.01125H87.9013V4.09868C88.3432 2.75784 89.6688 1.88934 90.9944 1.88934C91.3296 1.88934 91.6495 1.91979 92 1.98074V4.63197C91.5581 4.49484 91.1772 4.41864 90.7049 4.41864C89.2269 4.41864 87.886 5.66807 87.886 8.01454V13.7436H85.311V2.01125H85.3262Z" fill="#001E82"/>
<path d="M10.8943 6.71946C11.2905 4.15967 13.317 2.14839 15.8616 1.75224C15.4654 4.29679 13.4389 6.3233 10.8943 6.71946ZM12.7685 12.0523C12.9208 12.4028 12.8447 12.6923 12.7685 12.7685C12.6923 12.8447 12.4028 12.9208 12.0523 12.7685C11.4581 12.5247 11.0467 11.839 10.8943 10.8791C11.839 11.0467 12.5247 11.4581 12.7685 12.0523ZM8.47169 8.47169H9.12688V9.12688H8.47169V8.47169ZM5.54623 12.7837C5.19578 12.9361 4.90629 12.8599 4.83011 12.7837C4.75392 12.7075 4.67774 12.418 4.83011 12.0676C5.07389 11.4734 5.75954 11.062 6.71946 10.9096C6.55185 11.8543 6.1557 12.5247 5.54623 12.7837ZM1.73702 1.75224C4.29681 2.14839 6.30805 4.17491 6.70421 6.71946C4.15966 6.3233 2.13318 4.29679 1.73702 1.75224ZM16.7758 0C12.8447 0 9.59921 2.98643 9.18782 6.79564H8.42598C7.99934 2.98643 4.76913 0 0.838026 0H0V0.838026C0 4.76913 2.98643 8.01458 6.79564 8.42598V9.1726C4.37299 9.43163 3.53496 10.7877 3.29117 11.3972C2.91025 12.3266 3.0626 13.3475 3.65684 13.957C4.03776 14.3379 4.58631 14.536 5.16531 14.536C5.51576 14.536 5.86621 14.4598 6.20142 14.3226C6.81089 14.0636 8.16695 13.2408 8.42598 10.8182H9.1726C9.43163 13.2408 10.7877 14.0788 11.3972 14.3226C11.7324 14.4598 12.0981 14.536 12.4333 14.536C13.0123 14.536 13.5608 14.3379 13.9417 13.957C14.5512 13.3475 14.6883 12.3266 14.3074 11.3972C14.0484 10.7877 13.2256 9.43163 10.8029 9.1726V8.42598C14.6121 7.99934 17.5985 4.76913 17.5985 0.838026V0H16.7758Z" fill="#001E82"/>
</svg>
